<?xml version="1.0" standalone="no"?><!DOCTYPE svg PUBLIC "-//W3C//DTD SVG 1.1//EN" "http://www.w3.org/Graphics/SVG/1.1/DTD/svg11.dtd"><svg t="1698125058475" class="icon" viewBox="0 0 1024 1024" version="1.1" xmlns="http://www.w3.org/2000/svg" p-id="806" width="350" height="350" xmlns:xlink="http://www.w3.org/1999/xlink"><path d="M198.580754 803.421232c81.211627-264.039605 269.888823-464.280162 565.896514-600.720647C552.60479 365.259938 435.072957 569.852616 411.879722 816.480666c116.03576-43.530422 232.139058-65.296145 348.244402-65.296145 28.974915 0 50.740638 2.925632 65.296145 8.706289L729.652112 890.482077c-17.412578-2.924609-45.026496-5.780657-82.7077-8.706289-60.943001-11.56336-107.398032-17.412578-139.297556-17.412578-23.261797 0-60.943001 1.496074-113.179712 4.353145-52.236712 5.849218-91.413989 8.706289-117.531833 8.706289 2.857071-8.706289 18.841114-18.84009 47.883567-30.470989l8.706289-4.353145L198.580754 803.421232zM250.816442 324.586586l43.530422-187.181123c60.943001-5.78168 123.313513-8.706289 187.181123-8.706289 101.547791 0 200.240557 14.555507 296.007691 43.530422C649.801483 183.860495 548.251645 201.27205 472.822722 224.466308c-29.042453 8.706289-69.64929 27.613918-121.884978 56.589856C307.406299 301.392328 274.010701 315.880297 250.816442 324.586586z" fill="#d81e06" p-id="807"></path></svg>