<?xml version="1.0" standalone="no"?><!DOCTYPE svg PUBLIC "-//W3C//DTD SVG 1.1//EN" "http://www.w3.org/Graphics/SVG/1.1/DTD/svg11.dtd"><svg t="1697709004279" class="icon" viewBox="0 0 1024 1024" version="1.1" xmlns="http://www.w3.org/2000/svg" p-id="21966" xmlns:xlink="http://www.w3.org/1999/xlink" width="200" height="200"><path d="M388.681143 288.914286l2.779428 64.585143-44.909714 84.187428-70.217143 137.508572-13.970285 115.126857 50.468571 162.816 115.126857 64.585143h174.08l162.742857-123.538286 72.996572-193.682286L669.403429 395.702857l-47.762286-115.126857z" fill="#ECEFF1" p-id="21967"></path><path d="M787.236571 448.950857c-44.909714-64.585143-81.408-103.862857-101.010285-185.270857-19.675429-81.408 5.632-58.953143-11.264-129.097143A220.452571 220.452571 0 0 0 638.537143 53.174857C621.714286 33.499429 602.038857 22.308571 590.774857 19.529143c-25.234286-14.116571-84.187429-36.571429-157.257143 2.779428-75.702857 39.277714-67.291429 123.465143-53.248 294.765715 0 11.190857-2.852571 25.234286-8.411428 36.425143-11.264 25.307429-30.939429 47.762286-47.762286 67.364571-19.602286 28.086857-39.277714 56.173714-53.321143 87.04-33.645714 64.585143-64.585143 145.92-56.173714 176.859429 14.043429-2.852571 190.902857 266.605714 190.902857 272.237714 11.264-2.779429 58.953143-2.779429 101.083429-2.779429 58.953143-2.852571 92.598857-5.632 140.361142 5.632 0-8.484571-2.852571-16.822857-2.852571-25.307428 0-16.822857 2.852571-30.866286 5.632-50.468572 2.779429-14.043429 5.632-28.086857 8.411429-44.982857-28.086857 25.307429-78.628571 53.394286-126.317715 61.805714-42.130286 8.411429-112.274286-5.632-145.993143-47.762285 2.852571 0 8.484571 0 11.264-2.779429 8.411429-2.779429 16.822857-5.632 19.675429-11.264 8.411429-14.043429 2.779429-28.013714-2.852571-36.498286-5.632-8.411429-47.689143-39.277714-67.291429-56.100571-19.748571-16.822857-30.939429-25.234286-42.130286-36.498286L282.038857 687.542857c-5.632-5.632-8.484571-11.190857-11.264-14.043428-5.632-14.043429-8.411429-30.866286-5.632-53.321143 2.852571-30.866286 14.043429-56.173714 28.086857-84.187429a590.994286 590.994286 0 0 1 19.675429-33.645714s-47.762286 117.833143-22.454857 154.331428c0 0 2.779429-36.498286 14.043428-72.996571 8.411429-25.234286 22.454857-61.732571 39.277715-81.408 16.822857-19.675429 58.953143-92.598857 61.732571-137.508571 0-19.675429 2.779429-39.350857 2.779429-53.394286-11.190857-11.190857 185.270857-39.277714 196.534857-8.411429 2.779429 11.264 42.130286 112.274286 64.585143 165.668572 11.190857 25.234286 25.234286 47.689143 33.645714 75.776 8.411429 30.866286 14.043429 72.996571 14.043428 115.053714 0 8.411429 0 22.454857-2.779428 36.571429 5.558857 0 115.053714-117.979429-14.043429-216.210286 0 0 78.555429 36.498286 81.408 109.494857 2.779429 58.953143-22.454857 106.642286-28.086857 115.053714 2.779429 0 58.953143 25.307429 61.732572 25.307429 11.264 0 33.645714-8.411429 33.645714-8.411429 2.925714-8.484571 11.264-30.939429 11.264-39.350857 19.675429-64.512-28.086857-168.374857-72.996572-232.96z" fill="#263238" p-id="21968"></path><path d="M394.24 207.579429c0 20.041143 7.021714 38.546286 18.285714 48.566857a25.892571 25.892571 0 0 0 36.498286 0c11.264-10.020571 18.285714-28.525714 18.285714-48.566857 0-20.114286-7.021714-38.619429-18.285714-48.64a25.892571 25.892571 0 0 0-36.498286 0c-11.264 10.020571-18.285714 28.525714-18.285714 48.64zM509.366857 204.8c0 22.966857 9.069714 44.324571 23.844572 55.881143 14.774857 11.483429 32.914286 11.483429 47.762285 0 14.774857-11.556571 23.844571-32.914286 23.844572-55.954286 0-35.620571-21.357714-64.585143-47.762286-64.585143-26.331429 0-47.689143 28.964571-47.689143 64.585143z" fill="#ECEFF1" p-id="21969"></path><path d="M435.931429 247.222857c10.752-1.316571 17.554286-17.408 15.213714-35.84-2.267429-18.432-12.946286-32.329143-23.698286-30.939428-10.752 1.316571-17.554286 17.408-15.286857 35.84 2.340571 18.505143 13.019429 32.329143 23.771429 31.012571zM526.189714 215.990857c0 20.114286 12.580571 36.498286 28.086857 36.498286 15.506286 0 28.086857-16.384 28.086858-36.571429 0-20.114286-12.580571-36.425143-28.086858-36.425143-15.506286 0-28.086857 16.310857-28.086857 36.498286z" fill="#212121" p-id="21970"></path><path d="M927.597714 833.536c-11.190857-5.632-30.866286-14.043429-47.689143-39.350857-8.411429-14.043429-5.632-53.321143-19.675428-70.217143-8.411429-11.190857-19.602286-5.558857-22.454857-5.558857-25.234286 5.632-84.187429 44.909714-123.465143 0-5.632-5.632-14.043429-14.043429-28.086857-14.043429s-19.675429 5.632-25.307429 16.822857c-5.558857 11.264-5.558857 19.748571-5.558857 47.762286 0 22.454857 0 47.689143-2.852571 67.364572-5.558857 47.689143-14.043429 75.776-14.043429 103.862857 0 30.866286 8.484571 50.468571 19.675429 58.953143 8.411429 8.411429 22.454857 14.043429 53.394285 14.043428 30.793143 0 50.468571-11.264 70.144-30.866286 14.043429-14.043429 25.234286-19.675429 64.512-47.762285 30.866286-19.602286 78.628571-44.909714 87.04-53.321143 5.632-5.632 14.043429-8.411429 14.043429-25.234286 0-14.043429-11.264-19.675429-19.675429-22.454857z m-564.224 8.411429c-28.013714-44.909714-30.866286-53.394286-50.468571-81.408-16.822857-28.086857-53.394286-81.408-75.849143-81.408-16.822857 0-25.234286 8.411429-36.425143 19.675428-11.264 11.190857-22.454857 36.425143-42.130286 50.468572-16.822857 14.043429-64.585143 11.264-75.776 28.086857-11.264 16.822857 11.190857 42.130286 11.190858 84.187428 0 16.822857-14.043429 28.086857-16.822858 39.350857-2.779429 14.043429-5.632 22.454857 0 33.645715 11.190857 16.822857 25.234286 22.454857 120.685715 42.130285 50.541714 11.190857 98.230857 39.277714 129.170285 42.130286 30.866286 2.779429 84.114286 0 84.114286-75.849143 2.925714-44.909714-22.381714-56.100571-47.689143-101.010285z m53.394286-508.123429c-16.822857-11.190857-30.939429-22.454857-30.939429-39.277714 0-16.822857 11.264-22.454857 28.086858-36.498286 2.852571-2.779429 33.645714-30.866286 64.585142-30.866286 30.866286 0 67.364571 19.675429 81.408 25.307429 25.234286 5.558857 50.468571 11.190857 47.689143 30.866286-2.779429 28.013714-5.558857 33.645714-33.645714 47.689142-19.675429 5.632-56.173714 36.498286-81.408 36.498286-11.264 0-28.086857 0-39.277714-2.779428-8.484571-2.852571-22.528-16.822857-36.571429-30.939429z" fill="#FFC107" p-id="21971"></path><path d="M411.062857 311.369143a61.147429 61.147429 0 0 0 22.528 14.043428c5.632 2.852571 14.043429 5.632 14.043429 5.632h25.234285c14.043429 0 33.645714-5.632 53.394286-16.822857 19.602286-8.411429 22.381714-14.043429 36.425143-19.675428 14.043429-8.411429 28.086857-16.822857 22.454857-19.602286-5.632-2.852571-11.190857 0-30.866286 11.190857-16.822857 11.264-30.866286 16.822857-47.689142 25.234286-8.411429 2.852571-19.675429 8.484571-28.086858 8.484571h-25.234285c-8.484571 0-14.043429-2.852571-22.528-5.632-5.558857-2.852571-8.411429-5.632-11.190857-5.632-5.632-2.779429-16.822857-14.043429-22.454858-16.822857 0 0-5.632 0-2.779428 2.779429l16.822857 16.822857z m84.260572-61.732572c2.852571 5.632 8.411429 5.632 11.264 8.411429 2.779429 2.852571 5.558857 2.852571 5.558857 2.852571 2.852571-2.852571 0-8.411429-2.779429-8.411428 0-5.632-14.043429-5.632-14.043428-2.852572z m-44.909715 5.632c0 2.779429 5.632 5.632 5.632 2.779429 2.779429-2.779429 5.632-5.558857 8.411429-5.558857 5.632-2.852571 2.779429-5.632-5.632-5.632-5.558857 2.779429-5.558857 5.632-8.411429 8.411428z" fill="#634703" p-id="21972"></path><path d="M722.651429 752.128v8.411429c5.632 11.190857 19.748571 14.043429 30.939428 14.043428 16.822857 0 33.645714-11.264 42.130286-22.454857 0-2.852571 2.779429-5.632 5.558857-8.411429 5.632-8.484571 8.411429-14.043429 11.264-16.822857 0 0-2.852571-2.925714-2.852571-5.632-2.779429-5.632-11.190857-11.264-22.454858-14.043428a123.538286 123.538286 0 0 0-28.013714-5.632c-25.307429-2.779429-39.350857 5.632-47.762286 14.043428 0 0 2.852571 0 2.852572 2.779429a25.453714 25.453714 0 0 1 8.411428 19.675428c2.779429 5.632 0 8.411429 0 14.043429z" fill="#455A64" p-id="21973"></path></svg>