<?xml version="1.0" standalone="no"?><!DOCTYPE svg PUBLIC "-//W3C//DTD SVG 1.1//EN" "http://www.w3.org/Graphics/SVG/1.1/DTD/svg11.dtd"><svg t="1697708780693" class="icon" viewBox="0 0 1024 1024" version="1.1" xmlns="http://www.w3.org/2000/svg" p-id="19815" xmlns:xlink="http://www.w3.org/1999/xlink" width="200" height="200"><path d="M977.638091 646.146738h-126.475753c-5.499989 0-9.99998 4.499991-9.999981 9.99998v22.749956c0 3.255994 1.599997 6.131988 4.027992 7.963984a9.897981 9.897981 0 0 1 5.971989-2.037996h126.475753c2.243996 0 4.297992 0.777998 5.971988 2.037996 2.427995-1.829996 4.027992-4.707991 4.027992-7.963984v-22.749956c0-5.499989-4.499991-9.99998-9.99998-9.99998z" fill="#FFFFFF" p-id="19816"></path><path d="M987.240072 720.204593a9.799981 9.799981 0 0 0 0.397999-2.631995v-22.749955c0-5.499989-4.499991-9.99998-9.99998-9.999981h-126.475753c-5.499989 0-9.99998 4.499991-9.999981 9.999981v22.749955c0 0.915998 0.164 1.789997 0.397999 2.631995h145.679716z" fill="#B1E8FF" p-id="19817"></path><path d="M819.798399 853.792332v41.519919c0 5.499989 4.499991 9.99998 9.99998 9.999981h18.011965c5.499989 0 9.99998-4.499991 9.999981-9.999981v-41.519919H819.798399zM970.986104 895.310251c0 5.499989 4.499991 9.99998 9.99998 9.999981h18.011965c5.499989 0 9.99998-4.499991 9.99998-9.999981v-41.519919h-38.011925v41.519919z" fill="#FFAF68" p-id="19818"></path><path d="M819.798399 811.358415h189.19963v42.419917h-189.19963z" fill="#CB7C52" p-id="19819"></path><path d="M998.826049 720.204593h-168.85567c-5.593989 0-10.17198 4.577991-10.17198 10.17998v80.975842h189.19963v-80.975842c0-5.599989-4.575991-10.17998-10.17198-10.17998z" fill="#AB5436" p-id="19820"></path><path d="M151.563704 895.130252v-36.789928H40.239921c-5.499989 0-9.99998 4.499991-9.99998 9.99998v27.113947c0 5.499989 4.499991 9.99998 9.99998 9.999981h112.055782c1.759997 0 3.391993-0.499999 4.83199-1.305998-3.281994-1.693997-5.563989-5.08399-5.563989-9.017982z" fill="#63C3EA" p-id="19821"></path><path d="M73.999855 895.454251v-27.113947c0-5.499989 4.499991-9.99998 9.999981-9.99998H40.239921c-5.499989 0-9.99998 4.499991-9.99998 9.99998v27.113947c0 5.499989 4.499991 9.99998 9.99998 9.999981H83.999836c-5.499989 0-9.99998-4.499991-9.999981-9.999981z" fill="" p-id="19822"></path><path d="M177.539653 461.699098c0 5.499989-4.499991 9.99998-9.99998 9.999981H24.999951c-5.499989 0-9.99998-4.499991-9.99998-9.999981v-181.535645c0-5.499989 4.499991-9.99998 9.99998-9.999981h142.539722c5.499989 0 9.99998 4.499991 9.99998 9.999981v181.535645z" fill="#FF9F3D" p-id="19823"></path><path d="M57.999887 461.699098v-181.535645c0-5.499989 4.499991-9.99998 9.99998-9.999981H24.999951c-5.499989 0-9.99998 4.499991-9.99998 9.999981v181.535645c0 5.499989 4.499991 9.99998 9.99998 9.999981H67.999867c-5.499989 0-9.99998-4.499991-9.99998-9.999981z" fill="" p-id="19824"></path><path d="M723.572587 536.216953H242.767526c-10.999979 0-19.999961 8.999982-19.999961 19.999961v119.861766c10.24398 1.029998 18.309964 9.743981 18.309964 20.25196v54.823893h484.185054v-54.823893c0-10.507979 8.065984-19.221962 18.309965-20.25196v-119.861766c0-10.999979-8.999982-19.999961-19.999961-19.999961z" fill="#FFBB4A" p-id="19825"></path><path d="M241.077529 751.154533h27.711946a19.813961 19.813961 0 0 1-2.789995-10.11798v-184.819639c0-10.999979 8.999982-19.999961 19.999961-19.999961h-43.231915c-10.999979 0-19.999961 8.999982-19.999961 19.999961v119.861766c10.24398 1.029998 18.309964 9.743981 18.309964 20.25196v54.823893z" fill="" p-id="19826"></path><path d="M308.119398 751.154533h97.837809c3.525993-1.549997 6.009988-5.06999 6.009988-9.151982v-89.929825c0-5.499989-4.499991-9.99998-9.99998-9.99998h-89.857825c-5.499989 0-9.99998 4.499991-9.99998 9.99998v89.929825c0 4.081992 2.483995 7.601985 6.009988 9.151982zM568.52089 751.154533h97.837809c3.525993-1.549997 6.009988-5.06999 6.009988-9.151982v-89.929825c0-5.499989-4.499991-9.99998-9.999981-9.99998h-89.857824c-5.499989 0-9.99998 4.499991-9.999981 9.99998v89.929825c0 4.081992 2.483995 7.601985 6.009989 9.151982z" fill="#3EAF91" p-id="19827"></path><path d="M241.079529 751.158533h484.179054v102.899799H241.079529z" fill="#FF9F3D" p-id="19828"></path><path d="M220.731569 675.97468H171.907664c-11.189978 0-20.34396 9.159982-20.34396 20.35596v198.799612c0 5.597989 4.575991 10.17998 10.17198 10.17998h69.169865c5.593989 0 10.17198-4.581991 10.17198-10.17998v-198.799612c0-11.195978-9.155982-20.35596-20.34596-20.35596z" fill="#FCC96C" p-id="19829"></path><path d="M194.48562 895.130252v-198.799612c0-11.195978 9.153982-20.35596 20.34396-20.35596H171.907664c-11.189978 0-20.34396 9.159982-20.34396 20.35596v198.799612c0 5.597989 4.575991 10.17998 10.17198 10.17998h42.921916c-5.595989 0-10.17198-4.581991-10.17198-10.17998z" fill="" p-id="19830"></path><path d="M794.432448 675.97468h-48.825904c-11.189978 0-20.34396 9.159982-20.343961 20.35596v198.799612c0 5.597989 4.577991 10.17998 10.171981 10.17998h69.169865c5.593989 0 10.17198-4.581991 10.17198-10.17998v-198.799612c0-11.195978-9.155982-20.35596-20.343961-20.35596z" fill="#FCC96C" p-id="19831"></path><path d="M757.99852 895.130252v-198.799612c0-11.195978 9.153982-20.35596 20.34396-20.35596h-32.735936c-11.189978 0-20.34396 9.159982-20.343961 20.35596v198.799612c0 5.597989 4.577991 10.17998 10.171981 10.17998h32.735936c-5.593989 0-10.17198-4.581991-10.17198-10.17998z" fill="" p-id="19832"></path><path d="M707.914617 164.631678H258.425495c-5.831989 0-10.601979 4.773991-10.601979 10.60998v248.229515c0 5.835989 4.769991 10.609979 10.601979 10.609979h449.489122c5.829989 0 10.601979-4.773991 10.60198-10.609979V175.241658c0-5.835989-4.771991-10.609979-10.60198-10.60998z" fill="#AB5436" p-id="19833"></path><path d="M290.219433 207.059596h385.879246v184.579639H290.219433z" fill="#B1E8FF" p-id="19834"></path><path d="M660.038711 391.643235c3.299994 0 4.523991-2.259996 2.715995-5.02199l-61.74388-94.417816c-1.803996-2.761995-4.761991-2.761995-6.565987 0l-61.737879 94.417816c-1.803996 2.761995-0.583999 5.02199 2.715994 5.02199h124.615757z" fill="#86D5B5" p-id="19835"></path><path d="M290.219433 207.059596h33.771934v184.579639H290.219433z" fill="" p-id="19836"></path><path d="M819.676399 535.998953a5.31799 5.31799 0 0 1-5.07999-3.785992c-8.339984-27.093947-14.069973-32.889936-40.85792-41.32992a5.379989 5.379989 0 0 1-3.739993-5.14599c0-2.353995 1.515997-4.441991 3.739993-5.14199 26.787948-8.433984 32.517936-14.227972 40.85792-41.329919a5.32799 5.32799 0 0 1 5.07999-3.785993c2.335995 0 4.391991 1.539997 5.08799 3.785993 8.343984 27.101947 14.061973 32.895936 40.84992 41.329919a5.383989 5.383989 0 0 1 3.739993 5.14199 5.37399 5.37399 0 0 1-3.739993 5.14599c-26.785948 8.439984-32.505937 14.235972-40.84992 41.32992a5.33199 5.33199 0 0 1-5.08799 3.785992zM892.982256 321.999371a5.879989 5.879989 0 0 1-5.621989-4.193992c-9.235982-30.003941-15.58397-36.423929-45.247912-45.77191a5.947988 5.947988 0 0 1-4.139992-5.695989 5.959988 5.959988 0 0 1 4.139992-5.693989c29.663942-9.341982 36.01193-15.757969 45.247912-45.773911a5.891988 5.891988 0 0 1 5.621989-4.189991c2.589995 0 4.863991 1.701997 5.631989 4.189991 9.243982 30.015941 15.57997 36.431929 45.241912 45.773911a5.959988 5.959988 0 0 1 4.139991 5.693989c0 2.619995-1.675997 4.91999-4.139991 5.695989-29.661942 9.347982-35.99793 15.767969-45.241912 45.77191a5.895988 5.895988 0 0 1-5.631989 4.193992zM153.999699 201.721606a4.407991 4.407991 0 0 1-4.205992-3.131994c-6.899987-22.421956-11.641977-27.217947-33.809934-34.203933a4.445991 4.445991 0 0 1-3.093993-4.257992c0-1.945996 1.253998-3.675993 3.093993-4.253991 22.167957-6.979986 26.909947-11.773977 33.809934-34.203934 0.569999-1.859996 2.273996-3.127994 4.205992-3.127994s3.631993 1.269998 4.207992 3.127994c6.903987 22.429956 11.637977 27.221947 33.803934 34.203934a4.447991 4.447991 0 0 1 3.091994 4.253991c0 1.957996-1.249998 3.679993-3.091994 4.257992-22.165957 6.983986-26.899947 11.781977-33.803934 34.203933A4.411991 4.411991 0 0 1 153.999699 201.721606z" fill="#FFBB4A" p-id="19837"></path><path d="M485.731051 247.419517c-1.805996-2.761995-4.759991-2.761995-6.565987 0l-91.029822 139.201728c-1.803996 2.761995-0.583999 5.02199 2.715995 5.02199h183.189642c3.299994 0 4.523991-2.259996 2.715995-5.02199l-91.025823-139.201728z" fill="#3EAF91" p-id="19838"></path><path d="M373.223271 290.169433c-1.805996-2.761995-4.759991-2.761995-6.565987 0l-63.073877 96.451812c-1.805996 2.761995-0.583999 5.02199 2.715995 5.02199h127.279751c3.299994 0 4.521991-2.259996 2.715995-5.02199l-63.071877-96.451812z" fill="#86D5B5" p-id="19839"></path><path d="M895.072252 787.542462h38.653924c8.285984 0 14.999971-6.713987 14.999971-14.999971s-6.713987-14.999971-14.999971-14.999971h-38.653924a14.999971 14.999971 0 0 0 0 29.999942z" fill="" p-id="19840"></path><path d="M1002.638042 705.526622v-49.379904c0-13.785973-11.213978-24.999951-24.999951-24.999951h-126.475753c-13.783973 0-24.999951 11.213978-24.999952 24.999951 0 0-0.06 24.207953 0 24.923952-5.707989-11.865977-17.709965-20.095961-31.729938-20.095961h-35.85993v-104.757795c0-19.297962-15.701969-34.999932-34.999931-34.999932H242.767526c-19.297962 0-34.999932 15.701969-34.999932 34.999932v104.757795h-35.85993c-19.487962 0-35.343931 15.861969-35.343931 35.355931v147.011713H111.269783V486.699049H167.539673c13.785973 0 24.999951-11.213978 24.999951-24.999951V403.999211c0-8.285984-6.713987-14.999971-14.999971-14.999971s-14.999971 6.713987-14.99997 14.999971v52.699897H29.999941v-171.535665h132.539742V329.999355c0 8.285984 6.713987 14.999971 14.99997 14.999971s14.999971-6.713987 14.999971-14.999971v-49.835902c0-13.785973-11.213978-24.999951-24.999951-24.999951H24.999951c-13.785973 0-24.999951 11.213978-24.999951 24.999951v181.535645c0 13.785973 11.213978 24.999951 24.999951 24.999951h56.26989v356.643304H40.239921c-13.785973 0-24.999951 11.213978-24.999951 24.999951v27.113947c0 13.785973 11.213978 24.999951 24.999951 24.999951l190.665628-0.143999c13.877973 0 25.171951-11.295978 25.171951-25.179951v-26.077949H587.998852c8.285984 0 14.999971-6.713987 14.99997-14.999971s-6.713987-14.999971-14.99997-14.999971H256.0775v-72.897857h454.185113v72.897857H667.998695c-8.285984 0-14.999971 6.713987-14.99997 14.999971s6.713987 14.999971 14.99997 14.999971h42.263918v26.077949c0 13.883973 11.291978 25.179951 25.171951 25.179951h112.37778c13.783973 0 24.999951-11.215978 24.999951-24.999952v-26.519948h83.175838v26.519948c0 13.783973 11.213978 24.999951 24.999951 24.999952h18.011965c13.785973 0 24.999951-11.215978 24.999951-24.999952v-164.925678c-0.002-12.587975-9.289982-23.011955-21.361958-24.859951zM136.563733 890.454261H45.239912v-17.113967h91.323821v17.113967z m89.513825-0.144H166.563675v-193.979621c0-2.901994 2.447995-5.35599 5.343989-5.35599h48.823905c2.897994 0 5.34599 2.453995 5.345989 5.35599v193.979621z m170.887667-154.155699h-79.857844v-79.081845h79.857844v79.081845z m260.403491 0h-79.857844v-79.081845h79.857844v79.081845z m29.999941 0v-84.081836c0-13.785973-11.215978-24.999951-24.999951-24.999951h-89.857824c-13.785973 0-24.999951 11.213978-24.999951 24.999951v84.081836h-49.341904V649.99873a14.999971 14.999971 0 0 0-14.999971-14.99997 14.997971 14.997971 0 0 0-14.99997 14.99997v86.155832h-41.20392v-84.081836c0-13.785973-11.213978-24.999951-24.999951-24.999951h-89.857825c-13.785973 0-24.999951 11.213978-24.999951 24.999951v84.081836h-31.031939v-39.823922c0-13.317974-7.405986-24.931951-18.309964-30.95794V556.218914c0-2.709995 2.289996-4.99999 4.99999-4.999991h225.40156V583.998859c0 8.285984 6.713987 14.999971 14.99997 14.999971a14.999971 14.999971 0 0 0 14.999971-14.999971v-32.781936h225.40356c2.709995 0 4.99999 2.289996 4.99999 4.999991v109.151786c-10.903979 6.027988-18.309964 17.641966-18.309964 30.95994v39.823922h-22.891956v0.002z m112.407781 154.155699h-59.513884v-193.979621c0-2.901994 2.447995-5.35599 5.34399-5.35599h48.825904c2.895994 0 5.34399 2.453995 5.34399 5.35599v193.979621z m56.38589-229.163552h116.475772v8.675983h-116.475772v-8.675983z m0 38.675924h116.475772v5.38199h-116.475772v-5.38199z m-13.351974 190.487628H834.79837v-21.519958h8.011984v21.519958z m151.187705 0h-8.011985v-21.519958H993.998059v21.519958z m0-51.517899h-159.199689v-12.429976H993.998059v12.429976z m0-42.429917h-159.199689v-61.155881H993.998059v61.155881z" fill="" p-id="19841"></path><path d="M258.425495 449.081123h449.489122c14.117972 0 25.60195-11.487978 25.60195-25.60995V175.241658c0-14.121972-11.483978-25.60995-25.60195-25.60995H258.425495c-14.117972 0-25.60195 11.487978-25.60195 25.60995v248.229515c0 14.121972 11.483978 25.60995 25.60195 25.60995z m4.397992-269.449474h440.693139v239.449532H262.823487V179.631649zM769.230498 505.191013c22.099957 6.961986 24.127953 9.019982 31.017939 31.399939 2.629995 8.617983 10.43598 14.407972 19.427962 14.407972 8.965982 0 16.771967-5.771989 19.423962-14.369972 6.903987-22.421956 8.933983-24.477952 31.01994-31.437939 8.513983-2.681995 14.233972-10.497979 14.233972-19.453962 0-8.953983-5.719989-16.767967-14.235972-19.449962-22.083957-6.951986-24.113953-9.007982-31.02394-31.457938-2.657995-8.581983-10.45998-14.349972-19.417962-14.349972a20.211961 20.211961 0 0 0-19.415962 14.373972c-6.899987 22.421956-8.929983 24.477952-31.031939 31.435938-8.511983 2.683995-14.229972 10.499979-14.229973 19.449962 0 8.951983 5.717989 16.767967 14.231973 19.451962z m50.449901-38.431925c4.737991 8.405984 10.541979 14.217972 18.931963 18.981963-8.389984 4.763991-14.193972 10.575979-18.931963 18.979963-4.737991-8.405984-10.539979-14.215972-18.937963-18.979963 8.393984-4.763991 14.197972-10.575979 18.937963-18.981963zM837.604364 286.341441c24.973951 7.871985 27.623946 10.551979 35.403931 35.82993 2.697995 8.869983 10.723979 14.827971 19.973961 14.827971 9.219982 0 17.245966-5.939988 19.967961-14.777971 7.803985-25.331951 10.44998-28.013945 35.407931-35.87793 8.755983-2.753995 14.637971-10.791979 14.637971-20.003961 0-9.209982-5.881989-17.247966-14.633971-19.999961-24.959951-7.861985-27.609946-10.543979-35.417931-35.89793-2.727995-8.825983-10.751979-14.757971-19.961961-14.757971-9.239982 0-17.265966 5.951988-19.957961 14.777971-7.793985 25.329951-10.44398 28.013945-35.413931 35.87593-8.755983 2.753995-14.637971 10.791979-14.637971 20.001961-0.002 9.209982 5.881989 17.249966 14.631971 20.001961z m55.383892-44.311914c5.783989 11.359978 12.903975 18.493964 24.241953 24.311953-11.335978 5.819989-18.457964 12.955975-24.239953 24.309952-5.783989-11.355978-12.905975-18.487964-24.247953-24.309952 11.337978-5.815989 18.461964-12.953975 24.245953-24.311953zM111.475782 178.693651c17.417966 5.487989 18.537964 6.623987 23.973953 24.285953 2.515995 8.217984 9.969981 13.741973 18.547964 13.741973 8.553983 0 16.005969-5.505989 18.543964-13.717973 5.447989-17.689965 6.565987-18.823963 23.959953-24.305953 8.133984-2.551995 13.599973-10.01598 13.599974-18.567964 0-8.549983-5.463989-16.011969-13.585974-18.559964-17.407966-5.481989-18.529964-6.619987-23.981953-24.335952C169.999668 109.043787 162.549683 103.541798 153.999699 103.541798a19.303962 19.303962 0 0 0-18.541964 13.717973c-5.441989 17.685965-6.561987 18.819963-23.969953 24.301953a19.367962 19.367962 0 0 0-13.597973 18.563963c0 8.553983 5.465989 16.013969 13.585973 18.567964z m42.525917-29.405943a40.489921 40.489921 0 0 0 10.823979 10.843979 40.467921 40.467921 0 0 0-10.823979 10.845979 40.497921 40.497921 0 0 0-10.825979-10.843979 40.503921 40.503921 0 0 0 10.825979-10.845979z" fill="" p-id="19842"></path><path d="M676.112679 192.065625H290.227433a14.997971 14.997971 0 0 0-14.999971 14.999971v184.577639c0 8.285984 6.713987 14.999971 14.999971 14.999971h385.883246c8.285984 0 14.999971-6.713987 14.999971-14.999971v-184.577639a14.997971 14.997971 0 0 0-14.997971-14.999971z m-348.08132 184.577639l41.909918-64.087874 41.907919 64.087874h-83.817837z m119.663767 0l-17.555966-26.845947 52.309898-79.991844 69.863863 106.837791h-104.617795z m140.459725 0l-15.501969-23.707953 25.073951-38.345925 40.57992 62.051878h-50.151902v0.002z m72.957858-19.939961L613.566802 283.999445c-3.627993-5.551989-9.547981-8.867983-15.839969-8.867982-6.289988 0-12.211976 3.313994-15.83797 8.863982l-27.157946 41.535919-56.44789-86.321831c-3.627993-5.547989-9.547981-8.859983-15.835969-8.859983-6.285988 0-12.207976 3.309994-15.837969 8.861983l-54.393894 83.179837-26.439948-40.431921c-3.627993-5.547989-9.547981-8.861983-15.83597-8.861982s-12.207976 3.311994-15.837969 8.863982l-48.875904 74.739854v-134.633737h355.883305v134.635737h0.004z" fill="" p-id="19843"></path></svg>